<?xml version="1.0" standalone="no"?>
<!DOCTYPE svg PUBLIC "-//W3C//DTD SVG 20010904//EN"
 "http://www.w3.org/TR/2001/REC-SVG-20010904/DTD/svg10.dtd">
<svg version="1.0" xmlns="http://www.w3.org/2000/svg"
 width="512.000000pt" height="512.000000pt" viewBox="0 0 512.000000 512.000000"
 preserveAspectRatio="xMidYMid meet">
<metadata>
Created by potrace 1.11, written by Peter Selinger 2001-2013
</metadata>
<g transform="translate(0.000000,512.000000) scale(0.100000,-0.100000)"
fill="#000000" stroke="none">
<path d="M2397 4880 c-911 -88 -1663 -663 -1982 -1515 -47 -127 -98 -330 -121
-480 -25 -165 -25 -475 0 -640 76 -509 303 -963 661 -1320 696 -696 1736 -877
2635 -458 466 217 894 647 1107 1111 150 326 217 631 217 987 0 228 -17 363
-69 571 -210 826 -853 1469 -1679 1679 -72 18 -183 40 -246 49 -137 20 -401
28 -523 16z m443 -156 c475 -69 934 -287 1258 -598 320 -307 561 -776 641
-1246 17 -100 18 -117 5 -130 -7 -8 -14 -10 -14 -5 0 31 -34 214 -55 296 -84
329 -229 622 -443 891 -358 450 -1044 773 -1642 771 -385 -1 -834 -144 -1188
-379 -252 -168 -408 -325 -575 -579 -243 -371 -396 -886 -373 -1254 30 -473
228 -964 535 -1331 263 -313 694 -568 1155 -680 65 -17 121 -32 124 -35 15
-15 -40 -15 -111 0 -412 89 -845 327 -1123 617 -435 454 -685 1179 -600 1743
67 446 254 862 538 1200 285 338 796 617 1292 705 236 42 361 45 576 14z m-15
-990 c174 -84 280 -103 465 -84 63 7 167 26 230 42 164 43 176 44 190 19 8
-16 7 -48 -5 -131 -8 -60 -20 -185 -26 -279 -14 -204 -6 -282 52 -550 55 -255
69 -355 69 -502 0 -141 -10 -210 -46 -321 -82 -251 -310 -429 -686 -533 -156
-44 -369 -155 -437 -229 -31 -33 -41 -33 -72 0 -68 74 -281 185 -437 229 -376
104 -604 282 -686 533 -36 111 -46 180 -46 321 0 147 14 247 69 502 58 268 66
346 52 550 -6 94 -18 219 -26 279 -12 83 -13 115 -5 131 14 25 26 24 190 -19
205 -54 378 -62 525 -26 75 19 284 121 350 172 l49 39 61 -45 c33 -24 110 -68
170 -98z"/>
<path d="M2530 3783 c-91 -62 -231 -128 -325 -154 -141 -40 -378 -25 -588 36
-48 14 -92 25 -98 25 -8 0 -9 -13 -5 -37 20 -116 38 -339 38 -483 1 -144 -2
-181 -26 -290 -62 -287 -88 -431 -94 -533 -33 -501 162 -758 693 -913 140 -41
313 -123 405 -193 l65 -49 25 20 c121 94 277 172 445 221 532 157 726 413 693
914 -6 102 -32 246 -94 533 -24 109 -27 146 -26 290 0 144 18 367 38 483 4 24
3 37 -5 37 -6 0 -50 -11 -98 -25 -210 -61 -448 -76 -587 -37 -103 29 -206 78
-309 145 l-83 54 -64 -44z m901 -484 c-23 -48 -28 -168 -12 -227 8 -27 7 -32
-8 -32 -10 0 -26 9 -36 20 -11 13 -25 18 -37 14 -28 -8 -40 4 -27 28 19 35 13
90 -11 110 -48 38 -149 9 -189 -55 -51 -84 -12 -150 144 -241 154 -91 191
-151 183 -296 -8 -142 -87 -259 -214 -317 -161 -73 -316 53 -242 197 39 76
131 116 172 74 24 -23 19 -39 -16 -55 -60 -26 -64 -106 -8 -129 47 -20 100 0
149 57 66 74 77 164 30 239 -22 37 -53 61 -161 127 -92 57 -142 112 -158 174
-28 113 40 243 155 298 44 20 69 25 134 25 47 0 83 4 87 11 10 16 68 39 77 30
4 -4 -1 -27 -12 -52z m-596 -605 c0 -384 1 -396 20 -410 l20 -15 -20 -15 c-27
-21 -116 -66 -121 -62 -2 2 -4 89 -5 193 -1 105 -5 214 -8 244 l-6 53 -48
-146 c-27 -80 -52 -146 -57 -146 -5 0 -32 40 -60 90 -28 49 -56 92 -62 96 -7
4 -9 -71 -6 -234 3 -220 5 -242 22 -261 19 -21 19 -22 0 -36 -38 -28 -134 -76
-134 -66 0 5 5 22 11 38 12 30 14 512 3 656 -6 74 -8 79 -37 93 l-29 16 48 34
c27 19 58 33 69 32 13 -2 41 -40 89 -121 38 -65 71 -115 74 -113 2 3 31 94 62
201 32 108 66 205 76 217 16 17 79 56 94 58 3 0 5 -178 5 -396z m-605 31 c0
-9 -8 -30 -17 -48 -18 -35 -24 -155 -10 -219 9 -44 -1 -48 -44 -18 -16 12 -36
20 -46 18 -13 -2 -17 2 -14 17 11 55 5 107 -14 121 -50 37 -155 2 -193 -64
-28 -51 -28 -80 1 -120 31 -41 54 -59 158 -120 139 -83 174 -137 173 -272 -1
-53 -8 -93 -24 -135 -44 -116 -186 -225 -292 -225 -47 0 -114 37 -138 74 -57
93 15 236 119 236 36 0 71 -23 71 -47 0 -7 -8 -13 -19 -13 -31 0 -68 -45 -65
-81 3 -50 26 -65 97 -61 33 2 108 69 131 116 18 39 21 112 5 153 -16 43 -56
80 -159 148 -52 34 -107 75 -122 91 -114 122 -52 324 122 401 21 9 66 16 111
17 43 1 82 6 90 13 15 12 57 31 72 32 4 1 7 -6 7 -14z"/>
</g>
</svg>
